<?xml version="1.0" encoding="utf-8"?>
<!-- Generator: Adobe Illustrator 24.0.2, SVG Export Plug-In . SVG Version: 6.00 Build 0)  -->
<svg version="1.1" id="Layer_1" xmlns="http://www.w3.org/2000/svg" xmlns:xlink="http://www.w3.org/1999/xlink" x="0px" y="0px"
	 viewBox="0 0 17 35" style="enable-background:new 0 0 17 35;" xml:space="preserve">
<style type="text/css">
	.st0{fill:#213511;}
</style>
<path class="st0" d="M1.8,1.7c-0.3,0.7-0.5,2-0.5,2.8s-0.2,4.8-0.4,8.8c-0.3,5.2,0,7.6,1,8.3c0.7,0.6,1.3,2.4,1.3,4
	c0,1.7,0.5,2.9,1.3,2.9c0.7,0,2.6,1.3,4.2,3c3.4,3.5,4.5,3.8,4.5,0.9c0-1.2,0.7-3.6,1.6-5.5c0.9-1.9,1.4-4.7,1.2-6.4
	c-0.3-1.6-0.2-3,0.2-3c0.3,0,0.6-1,0.6-2.1c0-1.5-1.1-2.6-3.4-3.6c-1.8-0.8-3-1.8-2.6-2.4c0.3-0.6-1.2-2.8-3.4-5
	C2.9,0.2,2.3-0.1,1.8,1.7z"/>
</svg>
