<svg width="285" height="2" viewBox="0 0 285 2" fill="none" xmlns="http://www.w3.org/2000/svg">
<path d="M285 1.5663C283.45 1.5663 281.926 1.43983 280.386 1.5663C279.63 1.59435 278.874 1.50653 278.126 1.30363H277.746C277.188 2.10137 276.621 1.362 276.058 1.362C275.619 1.07987 275.16 1.65386 274.726 1.23553C274.084 1.91653 273.62 1.2939 273.072 1.47874C272.962 1.35694 272.838 1.29014 272.712 1.28417C271.617 1.80951 270.506 1.41064 269.401 1.50793C269.23 1.5659 269.055 1.50024 268.907 1.32309C268.746 1.02412 268.534 0.851358 268.313 0.837037C268.091 0.822716 267.874 0.967816 267.703 1.24526C267.585 1.41064 267.496 1.7706 267.313 1.61494C266.326 0.758828 265.31 1.4982 264.323 1.39119C261.545 1.05067 258.76 1.05067 255.983 1.39119C253.935 1.39119 251.877 1.39119 249.829 1.62467C249.553 1.62467 249.182 1.62467 249.138 1.1577C249.177 0.788014 248.871 0.690728 248.709 0.992314C248.047 2.22784 247.189 1.44956 246.399 1.57603C245.683 1.6513 244.966 1.61877 244.252 1.47874C243.636 1.39119 242.959 1.37173 242.318 1.19661C242.13 1.14797 241.963 1.00204 241.8 1.2939C241.7 1.47217 241.581 1.602 241.452 1.67297C241.322 1.74393 241.186 1.75405 241.055 1.7025C240.915 1.7268 240.775 1.7268 240.635 1.7025C240.065 1.50802 239.483 1.50802 238.913 1.7025C238.419 1.24526 237.679 2.37377 237.279 0.933943C235.878 0.564257 234.501 1.23553 233.1 1.35227C230.385 1.57603 227.671 1.12851 224.962 1.10906C223.289 1.10906 221.621 1.5663 219.918 1.28417C219.06 1.13824 217.944 0.175114 217.12 0.992314C216.563 1.52739 216.301 2.03327 215.946 1.47874C215.748 1.66359 215.497 1.42037 215.314 1.7706C215.595 0.0778286 214.48 1.59549 214.579 1.60521C214.194 1.60521 213.794 1.21607 213.424 1.65386C212.526 1.75114 211.361 1.7706 210.325 1.75114C207.236 1.69277 204.087 1.89707 201.097 1.75114C200.291 1.79265 199.488 1.59255 198.713 1.1577C197.573 0.642086 196.408 1.67331 195.259 1.44956C193.176 1.04096 191.089 1.44956 189.006 1.32309C187.665 1.27174 186.324 1.37895 184.989 1.64413C183.03 2.06724 181.053 2.04765 179.097 1.58576C177.448 1.12851 175.78 1.58576 174.122 1.50793C171.265 1.39119 168.418 2.06246 165.555 1.65386C163.981 1.42037 162.392 1.60521 160.813 1.5663C158.725 1.36036 156.632 1.39284 154.546 1.66359C154.027 1.98463 153.48 1.66359 152.957 1.88734C152.409 1.73169 151.92 1.25499 151.377 1.76087C151.259 1.76087 151.116 1.76087 151.002 1.76087C150.336 1.86789 149.699 1.89707 149.028 1.87761C148.989 1.38146 148.851 1.28417 148.594 1.35227C148.355 1.65147 148.088 1.85326 147.809 1.94571C147.661 1.88734 147.484 1.94571 147.4 1.59549C147.391 1.48651 147.37 1.38302 147.337 1.29342C147.305 1.20383 147.262 1.13066 147.212 1.07987C147.103 1.01981 146.99 0.983922 146.877 0.972857C146.352 0.874747 145.823 1.081 145.357 1.5663C145.273 1.59541 145.188 1.59541 145.105 1.5663C144.967 1.47696 144.821 1.44298 144.676 1.46637C144.531 1.48976 144.39 1.57005 144.261 1.7025C144.138 1.72189 144.014 1.72189 143.891 1.7025C143.62 1.51766 143.343 1.37173 143.082 1.1577C142.776 0.603171 142.475 1.75114 142.174 1.1577C142.008 0.942619 141.815 0.822404 141.616 0.810383C141.417 0.798363 141.221 0.895007 141.049 1.0896C140.363 2.14029 139.494 1.2939 138.749 1.8387L138.477 1.79006C138.162 1.69573 137.851 1.55921 137.545 1.38146C137.308 1.1577 137.091 0.729643 136.795 1.13824C136.745 1.2258 136.726 1.61494 136.676 1.71223C136.627 1.80951 136.573 1.4982 136.538 1.58576C136.503 1.67331 136.38 1.87761 136.306 1.87761C134.233 1.72196 132.181 1.87761 130.108 1.87761C127.453 1.87761 124.793 1.362 122.133 1.65386C121.368 1.73169 120.514 1.96517 119.853 1.42037C119.36 1.0215 119.207 0.603171 118.891 1.42037C118.659 2.01381 118.175 1.89707 117.904 1.73169C117.178 1.2939 116.497 1.6344 115.787 1.62467C115.412 2.1111 115.027 1.67331 114.652 1.43983C114.346 1.39119 114.109 2.14029 113.754 1.85816C112.939 1.2258 112.09 1.7706 111.286 1.78033C109.233 1.78033 107.2 1.84843 105.147 1.94571C103.247 2.02354 101.397 1.86789 99.4966 1.94571C97.9137 2.05633 96.3289 1.99787 94.7492 1.7706C94.4728 1.7706 94.3001 1.2258 94.0583 1.42037C92.7259 1.50793 89 1.5 89 1.5V0H285V1.5663Z" fill="#F2E8D9" fill-opacity="0.2"/>
<path d="M89 1.5C88.2936 1.5 87.9542 1.43983 87.2523 1.5663C86.9078 1.59435 86.5633 1.50653 86.2219 1.30363H86.0486C85.7944 2.10137 85.5357 1.362 85.2792 1.362C85.079 1.07987 84.8697 1.65386 84.6718 1.23553C84.3793 1.91653 84.1678 1.2939 83.9181 1.47874C83.8678 1.35694 83.8114 1.29014 83.7538 1.28417C83.2544 1.80951 82.7482 1.41064 82.2442 1.50793C82.1665 1.5659 82.0866 1.50024 82.0192 1.32309C81.9455 1.02412 81.8491 0.851359 81.7481 0.837037C81.6471 0.822716 81.5484 0.967816 81.4703 1.24526C81.4163 1.41064 81.3758 1.7706 81.2925 1.61494C80.8426 0.758829 80.3791 1.4982 79.9291 1.39119C78.663 1.05067 77.3931 1.05067 76.127 1.39119C75.1933 1.39119 74.2551 1.39119 73.3214 1.62467C73.1954 1.62467 73.0267 1.62467 73.0065 1.1577C73.0245 0.788014 72.885 0.690729 72.8107 0.992314C72.5093 2.22784 72.1178 1.44956 71.7578 1.57603C71.4315 1.6513 71.1043 1.61877 70.7792 1.47874C70.4979 1.39119 70.1897 1.37173 69.8972 1.19661C69.8117 1.14797 69.7352 1.00204 69.661 1.2939C69.6157 1.47217 69.5614 1.602 69.5024 1.67297C69.4434 1.74393 69.3813 1.75405 69.3213 1.7025C69.2577 1.7268 69.1937 1.7268 69.13 1.7025C68.8702 1.50802 68.6047 1.50802 68.3449 1.7025C68.1199 1.24526 67.7824 2.37377 67.6002 0.933943C66.9612 0.564257 66.3335 1.23553 65.6946 1.35227C64.4572 1.57603 63.2198 1.12851 61.9846 1.10906C61.2219 1.10906 60.4615 1.5663 59.6853 1.28417C59.2939 1.13824 58.7854 0.175114 58.4097 0.992314C58.1554 1.52739 58.0362 2.03327 57.8742 1.47874C57.7842 1.66359 57.6695 1.42037 57.5862 1.7706C57.7145 0.0778285 57.206 1.59549 57.251 1.60521C57.0755 1.60521 56.8933 1.21607 56.7246 1.65386C56.3151 1.75114 55.7841 1.7706 55.3117 1.75114C53.9033 1.69277 52.4679 1.89707 51.1045 1.75114C50.7374 1.79265 50.371 1.59255 50.0179 1.1577C49.4982 0.642086 48.9672 1.67331 48.443 1.44956C47.4936 1.04096 46.5419 1.44956 45.5925 1.32309C44.9811 1.27174 44.3696 1.37895 43.7611 1.64413C42.8681 2.06724 41.9668 2.04765 41.0749 1.58576C40.3234 1.12851 39.563 1.58576 38.807 1.50793C37.5044 1.39119 36.2063 2.06246 34.9014 1.65386C34.1837 1.42037 33.4592 1.60521 32.7393 1.5663C31.7872 1.36036 30.8332 1.39284 29.882 1.66359C29.6458 1.98463 29.3961 1.66359 29.1576 1.88734C28.9079 1.73169 28.6851 1.25499 28.4377 1.76087C28.3837 1.76087 28.3184 1.76087 28.2667 1.76087C27.9629 1.86789 27.6727 1.89707 27.3667 1.87761C27.3487 1.38146 27.2857 1.28417 27.1688 1.35227C27.0599 1.65147 26.9382 1.85326 26.811 1.94571C26.7435 1.88734 26.6625 1.94571 26.6243 1.59549C26.6204 1.48651 26.6107 1.38302 26.5958 1.29342C26.581 1.20383 26.5614 1.13066 26.5388 1.07987C26.4889 1.01981 26.4376 0.983922 26.3858 0.972857C26.1464 0.874747 25.9056 1.081 25.6929 1.5663C25.6549 1.59541 25.6161 1.59541 25.5781 1.5663C25.5151 1.47696 25.4487 1.44298 25.3826 1.46637C25.3165 1.48976 25.2522 1.57005 25.1934 1.7025C25.1373 1.72189 25.0808 1.72189 25.0247 1.7025C24.9009 1.51766 24.775 1.37173 24.6557 1.1577C24.5162 0.603172 24.379 1.75114 24.2418 1.1577C24.166 0.942619 24.078 0.822404 23.9875 0.810383C23.897 0.798363 23.8074 0.895007 23.7288 1.0896C23.4161 2.14029 23.0201 1.2939 22.6804 1.8387L22.5566 1.79006C22.4129 1.69573 22.2709 1.55921 22.1314 1.38146C22.0234 1.1577 21.9244 0.729643 21.7895 1.13824C21.767 1.2258 21.758 1.61494 21.7355 1.71223C21.713 1.80951 21.6882 1.4982 21.6725 1.58576C21.6567 1.67331 21.6005 1.87761 21.5667 1.87761C20.6218 1.72196 19.6859 1.87761 18.741 1.87761C17.5306 1.87761 16.3179 1.362 15.1053 1.65386C14.7565 1.73169 14.3673 1.96517 14.0658 1.42037C13.8409 1.0215 13.7711 0.603171 13.6271 1.42037C13.5214 2.01381 13.3009 1.89707 13.1772 1.73169C12.8464 1.2939 12.536 1.6344 12.212 1.62467C12.041 2.1111 11.8655 1.67331 11.6945 1.43983C11.5551 1.39119 11.4471 2.14029 11.2851 1.85816C10.9139 1.2258 10.5269 1.7706 10.1602 1.78033C9.22424 1.78033 8.29732 1.84843 7.3614 1.94571C6.49522 2.02354 5.65154 1.86789 4.78536 1.94571C4.06372 2.05633 3.34123 1.99787 2.62105 1.7706C2.49506 1.7706 2.41631 1.2258 2.30607 1.42037C1.69862 1.50793 7.62939e-06 1.42037 7.62939e-06 1.42037V0H89V1.5Z" fill="#F2E8D9" fill-opacity="0.2"/>
</svg>
